<svg width="224" height="44" viewBox="0 0 224 44" fill="none" xmlns="http://www.w3.org/2000/svg">
<rect width="44" height="44" rx="6" fill="#EFF2FC"/>
<path d="M28.6667 14.5H15.3333C14.8725 14.5 14.5 14.8733 14.5 15.3333V28.6667C14.5 29.1267 14.8725 29.5 15.3333 29.5H22.5125V23.7H20.5642V21.4292H22.5125V19.7625C22.5125 17.825 23.6958 16.7692 25.4292 16.7692C26.0117 16.7675 26.595 16.7975 27.175 16.8583V18.875H25.9792C25.0392 18.875 24.8558 19.3233 24.8558 19.9792V21.425H27.1033L26.8117 23.6958H24.855V29.5H28.6667C29.1275 29.5 29.5 29.1267 29.5 28.6667V15.3333C29.5 14.8733 29.1275 14.5 28.6667 14.5Z" fill="#33354D"/>
<rect x="60" width="44" height="44" rx="6" fill="#EFF2FC"/>
<path d="M88.3608 18.6641C88.3716 18.81 88.3716 18.955 88.3716 19.1C88.3716 23.5375 84.9941 28.6508 78.8216 28.6508C76.92 28.6508 75.1533 28.1 73.6666 27.1433C73.9366 27.1741 74.1966 27.185 74.4775 27.185C76.0466 27.185 77.4908 26.655 78.645 25.7508C77.1691 25.72 75.9325 24.7533 75.5058 23.4233C75.7133 23.4541 75.9216 23.475 76.14 23.475C76.4408 23.475 76.7433 23.4333 77.0241 23.3608C75.485 23.0491 74.3325 21.6983 74.3325 20.0666V20.025C74.78 20.2741 75.2991 20.43 75.8491 20.4508C74.945 19.8491 74.3525 18.82 74.3525 17.6558C74.3525 17.0325 74.5183 16.4608 74.8091 15.9625C76.4616 17.9983 78.9458 19.3291 81.7308 19.475C81.6791 19.225 81.6475 18.9658 81.6475 18.7058C81.6475 16.8558 83.1441 15.3491 85.0041 15.3491C85.9708 15.3491 86.8433 15.7541 87.4566 16.4091C88.215 16.2633 88.9416 15.9825 89.5866 15.5983C89.3375 16.3775 88.8066 17.0325 88.1108 17.4483C88.7866 17.375 89.4416 17.1883 90.0433 16.9283C89.5866 17.5933 89.0158 18.1858 88.3608 18.6641Z" fill="#33354D"/>
<rect x="120" width="44" height="44" rx="6" fill="#EFF2FC"/>
<path d="M149.456 18.9208C149.447 18.29 149.33 17.6641 149.107 17.0741C148.716 16.0666 147.92 15.27 146.913 14.88C146.33 14.6608 145.714 14.5433 145.091 14.53C144.289 14.4941 144.035 14.4841 142 14.4841C139.965 14.4841 139.704 14.4841 138.908 14.53C138.286 14.5433 137.67 14.6608 137.088 14.88C136.08 15.27 135.283 16.0666 134.893 17.0741C134.674 17.6566 134.556 18.2725 134.544 18.895C134.508 19.6975 134.498 19.9516 134.498 21.9866C134.498 24.0216 134.498 24.2816 134.544 25.0783C134.557 25.7016 134.674 26.3166 134.893 26.9008C135.284 27.9075 136.08 28.7041 137.088 29.0941C137.668 29.3208 138.284 29.4491 138.909 29.4691C139.712 29.505 139.966 29.5158 142.001 29.5158C144.036 29.5158 144.297 29.5158 145.093 29.4691C145.715 29.4566 146.331 29.3391 146.914 29.12C147.922 28.7291 148.718 27.9325 149.108 26.9258C149.328 26.3425 149.445 25.7275 149.458 25.1033C149.493 24.3016 149.504 24.0475 149.504 22.0116C149.503 19.9766 149.503 19.7183 149.456 18.9208ZM141.995 25.835C139.867 25.835 138.143 24.1108 138.143 21.9825C138.143 19.8541 139.867 18.13 141.995 18.13C144.122 18.13 145.848 19.8541 145.848 21.9825C145.848 24.1108 144.122 25.835 141.995 25.835ZM146.001 18.8858C145.503 18.8858 145.103 18.4841 145.103 17.9875C145.103 17.4908 145.503 17.0891 146.001 17.0891C146.497 17.0891 146.898 17.4908 146.898 17.9875C146.898 18.4841 146.497 18.8858 146.001 18.8858Z" fill="#33354D"/>
<path d="M141.995 24.485C143.377 24.485 144.498 23.3646 144.498 21.9825C144.498 20.6004 143.377 19.48 141.995 19.48C140.613 19.48 139.493 20.6004 139.493 21.9825C139.493 23.3646 140.613 24.485 141.995 24.485Z" fill="#33354D"/>
<rect x="180" width="44" height="44" rx="6" fill="#EFF2FC"/>
<path d="M209.994 18.0026C209.803 17.2876 209.24 16.7234 208.526 16.5309C207.221 16.1726 202 16.1668 202 16.1668C202 16.1668 196.78 16.1609 195.474 16.5034C194.774 16.6943 194.196 17.2709 194.003 17.9851C193.658 19.2901 193.655 21.9968 193.655 21.9968C193.655 21.9968 193.652 24.7168 193.993 26.0084C194.185 26.7226 194.748 27.2868 195.463 27.4793C196.781 27.8376 201.988 27.8434 201.988 27.8434C201.988 27.8434 207.208 27.8493 208.513 27.5076C209.227 27.3159 209.792 26.7526 209.986 26.0384C210.331 24.7343 210.333 22.0284 210.333 22.0284C210.333 22.0284 210.35 19.3076 209.994 18.0026ZM200.33 24.5043L200.334 19.5043L204.673 22.0084L200.33 24.5043Z" fill="#33354D"/>
</svg>
